<?xml version="1.0" encoding="utf-8"?>
<!-- Svg Vector Icons : http://www.onlinewebfonts.com/icon -->
<!DOCTYPE svg PUBLIC "-//W3C//DTD SVG 1.1//EN" "http://www.w3.org/Graphics/SVG/1.1/DTD/svg11.dtd">
<svg version="1.1" xmlns="http://www.w3.org/2000/svg" xmlns:xlink="http://www.w3.org/1999/xlink" x="0px" y="0px" viewBox="0 0 1000 1000" enable-background="new 0 0 1000 1000" xml:space="preserve">
<metadata> Svg Vector Icons : http://www.onlinewebfonts.com/icon </metadata>
<g><g transform="translate(0.000000,512.000000) scale(0.100000,-0.100000)"><path d="M304.8,4813.3L100,4608.5V3287.8V1967.1L203.4,1858l101.5-111h922.6H2148V-904v-2651h1732.2h1732.2v-513v-513l101.4-99.5l101.4-99.5h1942.8h1942.8l99.5,101.4l99.5,101.4v1225v1225l-101.4,99.5l-101.4,99.5H8684.6H7672l-212.5,210.5L7245.2-1507h-610.6H6024l-206.7-206.7l-204.8-204.8v-618.2V-3153H4081.2H2550v1636.5V120h1531.2h1531.3v-513v-513l101.4-99.5l101.4-99.5h1942.8h1942.8l99.5,101.4l99.5,101.4v1225v1225l-101.4,99.5l-101.4,99.5H8684.6H7672l-212.5,210.5L7245.2,2168h-610.6H6024l-206.7-206.7l-204.8-204.8v-618.2V522H4081.2H2550v612.5V1747h809.6h809.7l109.1,111l109.1,111v1225v1226.9l-103.4,99.5l-105.3,97.6H3158.7H2138.5l-201,201l-201,201H1124H511.5L304.8,4813.3z"/></g></g>
</svg>